<svg id="Layer_1" data-name="Layer 1" xmlns="http://www.w3.org/2000/svg" viewBox="0 0 256 128"><defs><style>.cls-1{fill:#e7530b;}.cls-2{fill:#fff;}</style></defs><rect class="cls-1" x="144.36" y="52.21" width="51.07" height="23.57" rx="4.55"/><path d="M60.61,69.22l5.65-12.37h1.29L73.2,69.22H71.83l-5.2-11.61h.53L62,69.22Zm2.22-3.3.39-1.06h7.19l.39,1.06Z"/><path d="M78.59,69.31a4.75,4.75,0,0,1-2.38-.6A4.34,4.34,0,0,1,74.56,67a5.38,5.38,0,0,1,0-4.94,4.22,4.22,0,0,1,1.65-1.65,4.75,4.75,0,0,1,2.38-.59,4.38,4.38,0,0,1,2.18.54A4,4,0,0,1,82.31,62a6.13,6.13,0,0,1,0,5.14,4,4,0,0,1-1.53,1.61A4.31,4.31,0,0,1,78.59,69.31Zm.09-1.11a3.48,3.48,0,0,0,1.77-.45,3.18,3.18,0,0,0,1.24-1.28,4.24,4.24,0,0,0,0-3.8,3.16,3.16,0,0,0-1.24-1.27A3.48,3.48,0,0,0,78.68,61a3.43,3.43,0,0,0-1.75.45,3.29,3.29,0,0,0-1.24,1.27,4.15,4.15,0,0,0,0,3.8,3.32,3.32,0,0,0,1.24,1.28A3.43,3.43,0,0,0,78.68,68.2Zm3.5,1V66.43l.12-1.87-.18-1.88V56.11h1.26V69.22Z"/><path d="M89.26,69.22,85.15,60h1.3l3.78,8.6h-.62L93.45,60h1.23l-4.13,9.27Z"/><path d="M100.13,69.31a5.12,5.12,0,0,1-2.55-.61A4.45,4.45,0,0,1,95.87,67a4.82,4.82,0,0,1-.62-2.45,4.94,4.94,0,0,1,.59-2.43,4.36,4.36,0,0,1,1.63-1.67,4.79,4.79,0,0,1,4.64,0,4.19,4.19,0,0,1,1.6,1.66,5,5,0,0,1,.58,2.46v.19a1.27,1.27,0,0,0,0,.2H96.2V64h7.41l-.5.37a3.69,3.69,0,0,0-.43-1.8,3.15,3.15,0,0,0-1.18-1.22,3.2,3.2,0,0,0-1.71-.44,3.25,3.25,0,0,0-1.71.44,3.06,3.06,0,0,0-1.19,1.23,3.85,3.85,0,0,0-.42,1.82v.2a3.55,3.55,0,0,0,.47,1.86,3.22,3.22,0,0,0,1.3,1.26,4,4,0,0,0,1.92.45,4.12,4.12,0,0,0,1.58-.3A3.26,3.26,0,0,0,103,67l.71.81a4.06,4.06,0,0,1-1.54,1.13A5.22,5.22,0,0,1,100.13,69.31Z"/><path d="M106.86,69.22V60h1.2v2.52l-.13-.44a3.07,3.07,0,0,1,1.31-1.62,4.33,4.33,0,0,1,2.28-.55v1.22h-.28a3,3,0,0,0-2.3.89,3.61,3.61,0,0,0-.83,2.54v4.73Z"/><path d="M112.76,61V60h5.74v1Zm4.38,8.32a2.75,2.75,0,0,1-2-.71,2.68,2.68,0,0,1-.7-2V57.9h1.25v8.64a1.73,1.73,0,0,0,.42,1.25,1.55,1.55,0,0,0,1.19.44,2,2,0,0,0,1.38-.48l.44.91a2.49,2.49,0,0,1-.89.49A3.56,3.56,0,0,1,117.14,69.31Z"/><path d="M122,57.9a.88.88,0,0,1-.65-.27.86.86,0,0,1-.27-.63.83.83,0,0,1,.27-.63.91.91,0,0,1,.65-.26.92.92,0,0,1,.66.25.82.82,0,0,1,.26.62.89.89,0,0,1-.92.92Zm-.63,11.32V60h1.25v9.27Z"/><path d="M128.62,69.31a7,7,0,0,1-2.17-.33,4.65,4.65,0,0,1-1.61-.82l.56-1a5.3,5.3,0,0,0,1.45.73,5.5,5.5,0,0,0,1.86.31,3.36,3.36,0,0,0,1.91-.41,1.32,1.32,0,0,0,.58-1.11,1,1,0,0,0-.33-.8,2.21,2.21,0,0,0-.85-.44,10.65,10.65,0,0,0-1.19-.26c-.43-.07-.87-.15-1.3-.25a4.62,4.62,0,0,1-1.17-.41,2.31,2.31,0,0,1-.86-.75,2.19,2.19,0,0,1-.32-1.27,2.31,2.31,0,0,1,.42-1.36,2.82,2.82,0,0,1,1.24-.95,5.21,5.21,0,0,1,2-.34,7,7,0,0,1,1.8.24,4.77,4.77,0,0,1,1.49.62l-.55,1a4.22,4.22,0,0,0-1.33-.61,5.68,5.68,0,0,0-1.41-.18,3.16,3.16,0,0,0-1.85.43,1.32,1.32,0,0,0-.59,1.1,1.06,1.06,0,0,0,.33.83,2.29,2.29,0,0,0,.86.47,9.11,9.11,0,0,0,1.19.27c.43.07.86.16,1.29.26a5.85,5.85,0,0,1,1.18.41,2.19,2.19,0,0,1,.87.72,2.16,2.16,0,0,1,.32,1.23,2.24,2.24,0,0,1-.45,1.4,2.84,2.84,0,0,1-1.3.92A5.86,5.86,0,0,1,128.62,69.31Z"/><path d="M138.69,69.31a5.08,5.08,0,0,1-2.54-.61A4.48,4.48,0,0,1,134.43,67a5.19,5.19,0,0,1,0-4.88A4.27,4.27,0,0,1,136,60.47a4.8,4.8,0,0,1,4.65,0,4.26,4.26,0,0,1,1.6,1.66,5.14,5.14,0,0,1,.58,2.46,1.28,1.28,0,0,1,0,.19,1.27,1.27,0,0,0,0,.2h-8.07V64h7.4l-.49.37a3.69,3.69,0,0,0-.44-1.8,3.19,3.19,0,0,0-1.17-1.22,3.26,3.26,0,0,0-1.72-.44,3.3,3.3,0,0,0-1.71.44,3,3,0,0,0-1.18,1.23,3.74,3.74,0,0,0-.43,1.82v.2a3.65,3.65,0,0,0,.47,1.86,3.25,3.25,0,0,0,1.31,1.26,4,4,0,0,0,1.91.45,4.17,4.17,0,0,0,1.59-.3,3.34,3.34,0,0,0,1.26-.92l.71.81a4.1,4.1,0,0,1-1.55,1.13A5.22,5.22,0,0,1,138.69,69.31Z"/><path class="cls-2" d="M151.62,69.22h-1.31V56.85h1.31Zm7.86-5.71h-8V62.37h8Zm-.12-6.66h1.29V69.22h-1.29Z"/><path class="cls-2" d="M168.35,69.31a5.08,5.08,0,0,1-2.54-.61A4.48,4.48,0,0,1,164.09,67a5.19,5.19,0,0,1,0-4.88,4.27,4.27,0,0,1,1.62-1.67,4.8,4.8,0,0,1,4.65,0,4.26,4.26,0,0,1,1.6,1.66,5,5,0,0,1,.58,2.46,1.28,1.28,0,0,1,0,.19,1.27,1.27,0,0,0,0,.2h-8.07V64h7.4l-.49.37a3.69,3.69,0,0,0-.44-1.8,3.19,3.19,0,0,0-1.17-1.22,3.26,3.26,0,0,0-1.72-.44,3.3,3.3,0,0,0-1.71.44,3,3,0,0,0-1.18,1.23,3.74,3.74,0,0,0-.43,1.82v.2a3.65,3.65,0,0,0,.47,1.86,3.25,3.25,0,0,0,1.31,1.26,4,4,0,0,0,1.92.45,4.15,4.15,0,0,0,1.58-.3,3.26,3.26,0,0,0,1.26-.92l.71.81a4.1,4.1,0,0,1-1.55,1.13A5.22,5.22,0,0,1,168.35,69.31Z"/><path class="cls-2" d="M175.08,69.22V60h1.2v2.52l-.12-.44a3,3,0,0,1,1.31-1.62,4.33,4.33,0,0,1,2.28-.55v1.22h-.29a3,3,0,0,0-2.29.89,3.57,3.57,0,0,0-.84,2.54v4.73Z"/><path class="cls-2" d="M185.88,69.31a5.12,5.12,0,0,1-2.55-.61A4.45,4.45,0,0,1,181.62,67a4.82,4.82,0,0,1-.62-2.45,4.94,4.94,0,0,1,.59-2.43,4.36,4.36,0,0,1,1.63-1.67,4.79,4.79,0,0,1,4.64,0,4.19,4.19,0,0,1,1.6,1.66,5,5,0,0,1,.58,2.46v.19a1.27,1.27,0,0,0,0,.2H182V64h7.41l-.5.37a3.69,3.69,0,0,0-.43-1.8,3.15,3.15,0,0,0-1.18-1.22,3.2,3.2,0,0,0-1.71-.44,3.25,3.25,0,0,0-1.71.44,3,3,0,0,0-1.19,1.23,3.85,3.85,0,0,0-.42,1.82v.2a3.55,3.55,0,0,0,.47,1.86,3.22,3.22,0,0,0,1.3,1.26,4,4,0,0,0,1.92.45,4.12,4.12,0,0,0,1.58-.3,3.26,3.26,0,0,0,1.26-.92l.71.81a4.06,4.06,0,0,1-1.54,1.13A5.22,5.22,0,0,1,185.88,69.31Z"/></svg>